# xmcd
#
# Track frame offsets: 
#        182
#        13907
#        29505
#        44697
#        59757
#        91675
#        109667
#        125105
#        138205
#        159025
#        191130
#        201217
#        225110
#        242685
#        257087
#
# Disc length: 3595 seconds
#
# Revision: 0
# Processed by: cddbd v1.5.2PL0 Copyright (c) Steve Scherf et al.
# Submitted via: ExactAudioCopy v0.99pb4
#
DISCID=cb0e090f
DTITLE=Various Artist - The Sequel Records Progressive Rock Sampler
DYEAR=1992
DGENRE=Progressive Rock
TTITLE0=Who Do You Love - Juicy Lucy
TTITLE1=Song For Jimi - Alexis Korner
TTITLE2=Rock And Roll Band - Eire Apparent
TTITLE3=Walking Through A Garden - Fat Matress
TTITLE4=Voodoo In You - Atomic Rooster
TTITLE5=Sanctuary - Gravy Train
TTITLE6=Simon The Bullet Freak - Uriah Heep
TTITLE7=Dirty Lovers - Motorhead
TTITLE8=When Evening Comes - Ken Hensley
TTITLE9=Wise As Wisdom - Fruupp
TTITLE10=Have You Ever Seen Me - Small Faces
TTITLE11=Catch Me Falling - Lemon Pipers
TTITLE12=Walking In The Park - Colosseum
TTITLE13=Black Veils Of Melancholy - Status Quo
TTITLE14=Freightloader - Eric Clapton\\Jimmy Page
EXTD=
EXTT0=
EXTT1=
EXTT2=
EXTT3=
EXTT4=
EXTT5=
EXTT6=
EXTT7=
EXTT8=
EXTT9=
EXTT10=
EXTT11=
EXTT12=
EXTT13=
EXTT14=
PLAYORDER=
